<svg  xmlns="http://www.w3.org/2000/svg" >
  <symbol id="call" viewBox="0 0 24 24" xmlns="http://www.w3.org/2000/svg"><g id="SVGRepo_bgCarrier" stroke-width="0"></g><g id="SVGRepo_tracerCarrier" stroke-linecap="round" stroke-linejoin="round"></g><g > <path fill-rule="evenodd" clip-rule="evenodd" d="M17.3545 22.2323C15.3344 21.7262 11.1989 20.2993 7.44976 16.5502C3.70065 12.8011 2.2738 8.66559 1.76767 6.6455C1.47681 5.48459 2.00058 4.36434 2.88869 3.72997L5.21694 2.06693C6.57922 1.09388 8.47432 1.42407 9.42724 2.80051L10.893 4.91776C11.5152 5.8165 11.3006 7.0483 10.4111 7.68365L9.24234 8.51849C9.41923 9.1951 9.96939 10.5846 11.6924 12.3076C13.4154 14.0306 14.8049 14.5807 15.4815 14.7576L16.3163 13.5888C16.9517 12.6994 18.1835 12.4847 19.0822 13.1069L21.1995 14.5727C22.5759 15.5257 22.9061 17.4207 21.933 18.783L20.27 21.1113C19.6356 21.9994 18.5154 22.5232 17.3545 22.2323ZM8.86397 15.136C12.2734 18.5454 16.0358 19.8401 17.8405 20.2923C18.1043 20.3583 18.4232 20.2558 18.6425 19.9488L20.3056 17.6205C20.6299 17.1665 20.5199 16.5348 20.061 16.2171L17.9438 14.7513L17.0479 16.0056C16.6818 16.5182 16.0047 16.9202 15.2163 16.7501C14.2323 16.5378 12.4133 15.8569 10.2782 13.7218C8.1431 11.5867 7.46219 9.7677 7.24987 8.7837C7.07977 7.9953 7.48181 7.31821 7.99439 6.95208L9.24864 6.05618L7.78285 3.93893C7.46521 3.48011 6.83351 3.37005 6.37942 3.6944L4.05117 5.35744C3.74413 5.57675 3.64162 5.89565 3.70771 6.15943C4.15989 7.96418 5.45459 11.7266 8.86397 15.136Z" ></path> </g></symbol>

  <symbol id="plane"  viewBox="0 0 1024 1024" xmlns="http://www.w3.org/2000/svg"><g id="SVGRepo_bgCarrier" stroke-width="0"></g><g id="SVGRepo_tracerCarrier" stroke-linecap="round" stroke-linejoin="round"></g><g id="SVGRepo_iconCarrier"><path d="M934.32 65.904c10.432 0 17.776 1.938 21.6 3.41 4.592 12.224 10.753 56.031-34.528 101.343L690.4 401.633l1.664 28.656c3.504 59.968 10 167.44 15.6 259.567 4.944 82 9.633 159.44 9.936 166.032.16 4.529.225 5.601-3.999 10.689-9.44 11.472-27.056 30.912-41.904 47.024-23.024-62.032-71.408-193.057-98.128-266.4l-34.336-94.368-71.024 71.024-130.608 125.584-18.192 18.16-.56 25.68c-.432 20.496-.336 57.28-.288 89.712.064 22.592.129 43.12-.031 54.432-.288.528 4.368 1.152 3.936 1.904-2.784-4.464-5.776-9.28-8.944-14.288-26.336-42-62.784-100.096-73.904-118.224l-8.128-13.28-13.344-8.065c-48.528-29.311-102.288-63.151-135.088-84.287 1.136-.656 2.063 2.816 2.815 2.415h2.128c10.32 0 27.376.224 46.496.496 25.008.336 53.376.752 75.088.752 8.32 0 15.712-.064 21.664-.192l25.68-.592 18.16-18.16 125.744-129.712 70.784-70.752-93.935-34.56c-70.592-25.967-205.808-76.464-269.056-100.224 16.223-14.944 35.775-32.688 47.183-42.129 3.184-2.624 5.665-3.967 7.376-3.967l2.256.064c7.056.336 94.688 6.064 179.407 11.6 89.936 5.872 191.44 12.496 249.151 16.16l28.848 1.808 231.024-231.04c32.448-32.4 64.32-37.248 80.449-37.248zm.001-63.997c-37.808 0-84.222 14.526-125.678 55.998L598.035 268.497c-118.624-7.504-422.432-27.6-429.968-27.808a100.693 100.693 0 0 0-4.88-.129c-10.256 0-27.968 1.968-48.128 18.624-23.664 19.569-73.008 65.97-73.008 65.97-11.904 11.935-17.936 26.719-16.496 40.623.88 8.4 5.44 23.712 26.064 31.777 12.528 4.912 211.904 79.504 303.969 113.376L229.844 640.642c-5.569.128-12.465.192-20.257.192-38.336 0-97.776-1.248-121.601-1.248-3.152 0-5.68 0-7.473.064-7.248.224-22.256-3.344-61.84 29.744l-2.816 2.624C3.985 683.89 1.201 695.73.945 703.554c-.256 8.064 1.904 19.68 13.568 29.024 7.008 5.664 96.848 63.184 170.527 107.68 17.665 28.817 98.945 158 103.185 165.008 6.193 10.464 16.32 16.432 28.433 16.816h1.008c11.776 0 23.872-5.84 35.712-17.344 33.504-39.184 28.88-55.407 29.023-62.224.528-21.376-.368-111.936.4-147.84l130.592-125.6c33.376 91.68 106.336 289.008 111.216 301.567 8.128 20.624 23.44 25.153 31.84 26 1.376.16 2.785.225 4.16.225 12.625 0 25.712-5.936 36.432-16.655 0 0 46.256-49.088 65.904-72.976 19.68-23.872 18.913-44.256 18.529-53.872-.16-6.656-18.689-308.816-25.569-426.816L966.561 215.89c74.657-74.689 62.785-164.688 35.057-192.368-12.24-12.304-37.024-21.615-67.297-21.616z"></path></g></symbol>

  <symbol id="wifi" viewBox="0 0 16 16"  xmlns="http://www.w3.org/2000/svg"><g id="SVGRepo_bgCarrier" stroke-width="0"></g><g id="SVGRepo_tracerCarrier" stroke-linecap="round" stroke-linejoin="round"></g><g id="SVGRepo_iconCarrier"> <path d="M0 7L1.17157 5.82843C2.98259 4.01741 5.43884 3 8 3C10.5612 3 13.0174 4.01742 14.8284 5.82843L16 7L14.5858 8.41421L13.4142 7.24264C11.9783 5.8067 10.0307 5 8 5C5.96928 5 4.02173 5.8067 2.58579 7.24264L1.41421 8.41421L0 7Z" fill="transparent"></path> <path d="M4.24264 11.2426L2.82843 9.82843L4 8.65685C5.06086 7.59599 6.49971 7 8 7C9.50029 7 10.9391 7.59599 12 8.65686L13.1716 9.82843L11.7574 11.2426L10.5858 10.0711C9.89999 9.38527 8.96986 9 8 9C7.03014 9 6.1 9.38527 5.41421 10.0711L4.24264 11.2426Z" fill="transparent"></path> <path d="M8 15L5.65685 12.6569L6.82842 11.4853C7.13914 11.1746 7.56057 11 8 11C8.43942 11 8.86085 11.1746 9.17157 11.4853L10.3431 12.6569L8 15Z" fill="transparent"></path> </g></symbol>

  <symbol id="moon" viewBox="0 0 24 24" fill="transparent" xmlns="http://www.w3.org/2000/svg"><g id="SVGRepo_bgCarrier" stroke-width="0"></g><g id="SVGRepo_tracerCarrier" stroke-linecap="round" stroke-linejoin="round"></g><g id="SVGRepo_iconCarrier"> <path d="M3.32031 11.6835C3.32031 16.6541 7.34975 20.6835 12.3203 20.6835C16.1075 20.6835 19.3483 18.3443 20.6768 15.032C19.6402 15.4486 18.5059 15.6834 17.3203 15.6834C12.3497 15.6834 8.32031 11.654 8.32031 6.68342C8.32031 5.50338 8.55165 4.36259 8.96453 3.32996C5.65605 4.66028 3.32031 7.89912 3.32031 11.6835Z" stroke-width="2" stroke-linecap="round" stroke-linejoin="round"></path> </g></symbol>

  <symbol id="sound" viewBox="0 0 24 24" fill="none" xmlns="http://www.w3.org/2000/svg"><g id="SVGRepo_bgCarrier" stroke-width="0"></g><g id="SVGRepo_tracerCarrier" stroke-linecap="round" stroke-linejoin="round"></g><g id="SVGRepo_iconCarrier"> <path fill-rule="evenodd" clip-rule="evenodd" d="M10.4 1.8C11.5532 0.262376 14 1.07799 14 3.00001V21.1214C14 23.0539 11.5313 23.8627 10.3878 22.3049L6.49356 17H4C2.34315 17 1 15.6569 1 14V10C1 8.34315 2.34315 7 4 7H6.5L10.4 1.8ZM12 3L8.1 8.2C7.72229 8.70361 7.12951 9 6.5 9H4C3.44772 9 3 9.44772 3 10V14C3 14.5523 3.44772 15 4 15H6.49356C7.13031 15 7.72901 15.3032 8.10581 15.8165L12 21.1214V3Z" fill="transparent"></path> <path d="M16.2137 4.17445C16.1094 3.56451 16.5773 3 17.1961 3C17.6635 3 18.0648 3.328 18.1464 3.78824C18.4242 5.35347 19 8.96465 19 12C19 15.0353 18.4242 18.6465 18.1464 20.2118C18.0648 20.672 17.6635 21 17.1961 21C16.5773 21 16.1094 20.4355 16.2137 19.8256C16.5074 18.1073 17 14.8074 17 12C17 9.19264 16.5074 5.8927 16.2137 4.17445Z" fill="transparent"></path> <path d="M21.41 5C20.7346 5 20.2402 5.69397 20.3966 6.35098C20.6758 7.52413 21 9.4379 21 12C21 14.5621 20.6758 16.4759 20.3966 17.649C20.2402 18.306 20.7346 19 21.41 19C21.7716 19 22.0974 18.7944 22.2101 18.4509C22.5034 17.5569 23 15.5233 23 12C23 8.47672 22.5034 6.44306 22.2101 5.54913C22.0974 5.20556 21.7716 5 21.41 5Z" fill="transparent"></path> </g></symbol>

  <symbol id="bluetooh" viewBox="0 0 16 16" xmlns="http://www.w3.org/2000/svg" version="1.1" fill="transparent"  stroke-linecap="round" stroke-linejoin="round" stroke-width="1.5"><g id="SVGRepo_bgCarrier" stroke-width="0"></g><g id="SVGRepo_tracerCarrier" stroke-linecap="round" stroke-linejoin="round"></g><g id="SVGRepo_iconCarrier"> <path d="m3.75 11.25 8.5-6.25-4.5-3.25v12.5l4.5-3.25-8.5-6.25"></path> </g></symbol>
</svg>



